<!DOCTYPE svg PUBLIC "-//W3C//DTD SVG 1.1//EN" "http://www.w3.org/Graphics/SVG/1.1/DTD/svg11.dtd">
<!-- Uploaded to: SVG Repo, www.svgrepo.com, Transformed by: SVG Repo Mixer Tools -->
<svg fill="#394685" height="800px" width="800px" version="1.1" id="Layer_1" xmlns="http://www.w3.org/2000/svg" xmlns:xlink="http://www.w3.org/1999/xlink" viewBox="0 0 511.996 511.996" xml:space="preserve">
<g id="SVGRepo_bgCarrier" stroke-width="0"/>
<g id="SVGRepo_tracerCarrier" stroke-linecap="round" stroke-linejoin="round"/>
<g id="SVGRepo_iconCarrier"> <g> <g> <path d="M230.785,400.837c-5.886,0-10.66,4.773-10.66,10.66v14.284c0,5.886,4.773,10.66,10.66,10.66s10.66-4.773,10.66-10.66 v-14.284C241.445,405.611,236.672,400.837,230.785,400.837z"/> </g> </g> <g> <g> <path d="M189.948,270.586c-5.886,0-10.66,4.773-10.66,10.66v3.173c0,5.886,4.773,10.66,10.66,10.66s10.66-4.773,10.66-10.66 v-3.173C200.608,275.358,195.834,270.586,189.948,270.586z"/> </g> </g> <g> <g> <path d="M204.583,180.456c-5.886,0-10.66,4.773-10.66,10.66c0,4.091-3.931,7.419-8.762,7.419c-4.837,0-8.772-3.328-8.772-7.419 c0-5.886-4.773-10.66-10.66-10.66s-10.66,4.773-10.66,10.66c0,15.847,13.5,28.739,30.092,28.739 c16.588,0,30.082-12.892,30.082-28.739C215.243,185.229,210.47,180.456,204.583,180.456z"/> </g> </g> <g> <g> <path d="M506.35,35.319l-0.001-0.003c-0.004-0.02-0.011-0.051-0.014-0.067c-0.016-0.075-0.042-0.146-0.059-0.222 c-0.066-0.291-0.139-0.579-0.228-0.86c-0.033-0.102-0.074-0.2-0.109-0.303c-0.09-0.256-0.185-0.511-0.293-0.756 c-0.048-0.11-0.101-0.214-0.154-0.322c-0.111-0.23-0.227-0.457-0.353-0.677c-0.064-0.111-0.13-0.22-0.198-0.328 c-0.128-0.207-0.263-0.407-0.405-0.603c-0.079-0.111-0.16-0.22-0.243-0.326c-0.145-0.185-0.297-0.363-0.453-0.538 c-0.093-0.103-0.183-0.208-0.279-0.308c-0.169-0.175-0.347-0.34-0.528-0.503c-0.094-0.085-0.184-0.175-0.281-0.256 c-0.269-0.226-0.547-0.439-0.837-0.639c-0.014-0.01-0.027-0.02-0.041-0.03c-0.31-0.21-0.632-0.401-0.964-0.578 c-0.018-0.01-0.034-0.022-0.052-0.031c-0.07-0.037-0.144-0.063-0.214-0.098c-0.249-0.125-0.501-0.243-0.76-0.347 c-0.109-0.045-0.221-0.082-0.332-0.123c-0.242-0.089-0.486-0.171-0.734-0.242c-0.12-0.034-0.243-0.066-0.366-0.096 c-0.239-0.059-0.48-0.11-0.723-0.152c-0.133-0.023-0.268-0.046-0.403-0.064c-0.227-0.031-0.456-0.051-0.688-0.067 c-0.152-0.011-0.305-0.022-0.458-0.026c-0.208-0.005-0.418,0-0.629,0.007c-0.173,0.005-0.345,0.009-0.519,0.022 c-0.048,0.003-0.095,0.001-0.143,0.006c-3.451,0.326-82.701,8.295-151.647,54.081c-12.037-9.395-39.719-25.636-87.249-25.636 c-47.53,0-75.211,16.24-87.249,25.636C99.802,35.086,20.553,27.115,17.101,26.79c-0.051-0.004-0.101-0.002-0.152-0.006 c-0.164-0.013-0.326-0.016-0.488-0.021c-0.22-0.007-0.439-0.014-0.657-0.007c-0.148,0.004-0.295,0.016-0.443,0.026 c-0.233,0.016-0.466,0.037-0.695,0.068c-0.138,0.018-0.273,0.042-0.408,0.065c-0.238,0.042-0.471,0.091-0.704,0.148 c-0.132,0.032-0.264,0.066-0.394,0.103c-0.231,0.067-0.458,0.143-0.683,0.224c-0.129,0.047-0.26,0.092-0.387,0.144 c-0.226,0.092-0.445,0.196-0.663,0.303c-0.097,0.047-0.197,0.084-0.292,0.133c-0.025,0.013-0.047,0.03-0.071,0.044 c-0.26,0.14-0.511,0.293-0.757,0.454c-0.159,0.103-0.312,0.213-0.466,0.324c-0.196,0.142-0.391,0.285-0.578,0.44 c-0.129,0.108-0.248,0.225-0.372,0.339c-0.148,0.136-0.296,0.272-0.436,0.416c-0.116,0.119-0.225,0.245-0.336,0.37 c-0.138,0.155-0.271,0.311-0.399,0.474c-0.097,0.123-0.19,0.248-0.28,0.376c-0.129,0.18-0.252,0.365-0.37,0.553 c-0.077,0.122-0.151,0.244-0.223,0.369c-0.119,0.208-0.228,0.422-0.333,0.638C6.457,32.885,6.399,33,6.345,33.12 c-0.104,0.238-0.195,0.482-0.282,0.728c-0.038,0.109-0.082,0.215-0.117,0.326c-0.087,0.275-0.159,0.559-0.224,0.844 c-0.018,0.079-0.045,0.154-0.062,0.232c-0.003,0.017-0.01,0.048-0.014,0.069c-0.886,4.318-17.533,87.904,10.888,128.615 c8.695,12.456,20.568,19.886,35.292,22.088c23.761,3.547,50.022,5.172,64.528,5.851c-2.686,25.272-11.635,53.005-27.201,84.393 c-18.153,36.615-17.082,69.981,3.178,99.17c15.738,22.673,39.953,38.735,60.282,51.685c1.712,19.527,11.889,34.815,29.694,44.447 c17.007,9.202,41.111,13.673,73.691,13.673s56.685-4.472,73.691-13.673c17.988-9.731,28.186-25.238,29.739-45.055 c9.493-7.287,18.1-13.736,25.801-19.506c32.726-24.519,50.753-38.026,56.765-56.401c6.564-20.067-2.856-41.472-19.15-74.342 c-15.564-31.385-24.513-59.117-27.201-84.392c14.506-0.68,40.768-2.305,64.53-5.852c14.722-2.2,26.594-9.631,35.289-22.087 C523.881,123.226,507.238,39.649,506.35,35.319z M54.972,164.935c-8.817-1.319-15.67-5.634-20.951-13.193 c-16.285-23.307-13.637-71.369-9.719-99.022c60.352,28.424,90.846,67.135,92.815,117.835 C102.964,169.879,77.454,168.292,54.972,164.935z M255.996,463.922c-73.793,0-82.326-24.439-82.326-42.82 c0-19.909,9.781-40.262,82.326-40.262s82.326,20.353,82.326,40.262C338.322,439.483,329.788,463.922,255.996,463.922z M403.74,285.735c15.432,31.128,21.692,46.924,17.988,58.243c-3.919,11.978-20.995,24.772-49.284,45.968 c-4.878,3.654-10.13,7.591-15.733,11.832c-4.006-12.03-12.124-21.52-24.261-28.368c63.691-30.346,62.342-77.582,62.25-79.64 c-0.16-3.565-2.094-6.813-5.151-8.653c-3.056-1.842-6.832-2.031-10.058-0.504l-46.79,22.136v-25.505 c0-5.886-4.773-10.66-10.66-10.66s-10.66,4.773-10.66,10.66v83.898c-14.498-3.807-32.593-5.623-55.388-5.623 s-40.89,1.816-55.388,5.623v-54.432c0-5.886-4.773-10.66-10.66-10.66c-4.602,0-8.512,2.923-10.004,7.009l-47.445-22.446 c-3.225-1.528-6.999-1.338-10.058,0.504c-3.057,1.841-4.991,5.088-5.151,8.653c-0.092,2.057-1.441,49.293,62.25,79.64 c-12.58,7.097-20.818,17.05-24.659,29.711c-44.124-29.505-74.693-60.78-46.631-117.386 c19.144-38.604,29.013-72.521,30.172-103.685c1.799-47.782-17.072-87.546-56.224-118.805 c25.399,8.313,54.598,20.916,81.218,39.823c1.865,1.324,4.024,1.969,6.168,1.969c2.973,0,5.918-1.24,8.013-3.623 c0.219-0.247,23.384-24.859,78.401-24.859c55.101,0,77.535,23.913,78.401,24.859c2.095,2.384,5.04,3.624,8.013,3.623 c2.144,0,4.302-0.644,6.168-1.969c26.555-18.86,55.746-31.455,81.156-39.775c-39.111,31.25-57.962,70.998-56.163,118.75 C374.73,213.214,384.597,247.132,403.74,285.735z M332.704,349.233v-18.898l35.83-16.95 C363.513,323.957,353.326,337.396,332.704,349.233z M179.288,330.335v18.895c-20.578-11.816-30.764-25.239-35.795-35.829 L179.288,330.335z M477.981,151.73c-5.282,7.567-12.139,11.887-20.958,13.205c-22.484,3.357-47.994,4.945-62.148,5.621 c1.966-50.705,32.459-89.413,92.824-117.839C491.631,80.345,494.291,128.366,477.981,151.73z"/> </g> </g> <g> <g> <path d="M281.207,400.837c-5.886,0-10.66,4.773-10.66,10.66v14.284c0,5.886,4.773,10.66,10.66,10.66s10.66-4.773,10.66-10.66 v-14.284C291.867,405.611,287.094,400.837,281.207,400.837z"/> </g> </g> <g> <g> <path d="M348.982,180.456c-5.886,0-10.66,4.773-10.66,10.66c0,4.091-3.931,7.419-8.763,7.419c-4.831,0-8.762-3.328-8.762-7.419 c0-5.886-4.773-10.66-10.66-10.66s-10.66,4.773-10.66,10.66c0,15.847,13.494,28.739,30.082,28.739s30.083-12.892,30.083-28.739 C359.642,185.229,354.869,180.456,348.982,180.456z"/> </g> </g> </g>
</svg>